PathFileType	4	(X/Y/Z)	C:/Users/beibeiliu/ov580/test_trc/User3\sequence.3_training_dense_left.trc
DataRate	CameraRate	NumFrames	NumMarkers	Units	OrigDataRate	OrigDataStartFrame	OrigNumFrames
120	120	15	19	mm	120	1	78
Frame#	Time	ThumbCMC			ThumbMCP			ThumbIP			ThumbTip			IndexMCP			IndexPIP			IndexTip			MiddleMCP			MiddlePIP			MiddleTip			RingMCP			RingPIP			RingTip			PinkyMCP			PinkyPIP			PinkyTip			BackHand1			BackHand2			BackHand3	
		X0	Y0	Z0	X1	Y1	Z1	X2	Y2	Z2	X3	Y3	Z3	X4	Y4	Z4	X5	Y5	Z5	X6	Y6	Z6	X7	Y7	Z7	X8	Y8	Z8	X9	Y9	Z9	X10	Y10	Z10	X11	Y11	Z11	X12	Y12	Z12	X13	Y13	Z13	X14	Y14	Z14	X15	Y15	Z15	X16	Y16	Z16	X17	Y17	Z17	X18	Y18	Z18	
0	0	-102.611	14.1807	-5.98082	-83.5635	7.71285	-27.7671	-63.5518	4.28829	-51.0263	-52.128	-1.67841	-73.3831	-125.843	35.6648	-79.8565	-118.746	38.454	-106.098	-114.352	37.4963	-136.921	-148.817	35.4216	-86.1454	-149.52	37.1117	-115.307	-149.351	31.1323	-147.299	-166.746	25.6028	-81.1584	-171.057	26.3958	-103.333	-175.009	20.1324	-130.455	-186.976	10.6788	-65.8862	-191.762	9.16411	-84.6167	-193.751	6.90293	-109.864	-167.12	29.7715	-29.7735	-167.822	26.2019	4.88376	-135.914	34.9984	-14.8025	
1	0.00833333	-104.818	12.8546	-8.71004	-83.1553	7.88261	-29.2058	-69.1736	2.47637	-52.6025	-55.1568	-4.45308	-74.9096	-127.411	36.44	-81.4252	-121.208	38.9552	-110.908	-116.553	34.1119	-138.532	-149.516	36.5082	-88.5414	-149.652	37.5685	-113.373	-149.992	28.4735	-147.873	-172.116	24.74	-79.1199	-171.033	25.5061	-104.711	-174.448	16.0905	-136.477	-184.792	8.96796	-63.0933	-192.767	7.17225	-91.2681	-195.72	2.63399	-110.871	-170.121	26.4294	-26.2674	-168.423	25.889	2.20171	-136.329	33.6432	-16.5037	
2	0.0166667	-104.897	10.4614	-6.71969	-85.0421	5.3081	-27.1334	-66.3317	0.29711	-56.3305	-61.048	-7.64632	-73.6929	-122.005	38.5195	-83.7387	-120.754	38.7067	-108.675	-111.598	31.8405	-134.358	-151.499	36.848	-84.1876	-149.485	37.6523	-114.522	-145.429	25.3891	-145.913	-166.418	26.4659	-76.6116	-170.445	24.6366	-109.475	-171.781	10.3902	-134.887	-185.948	10.2115	-64.4911	-191.279	5.97156	-90.4988	-188.797	-4.09769	-111.699	-170.765	26.2697	-26.1271	-167.543	22.6958	2.13659	-137.657	31.5595	-12.7482	
3	0.025	-100.772	12.2076	-9.88315	-84.9869	5.23369	-30.4641	-70.4625	-0.733189	-56.5956	-66.6157	-9.54689	-76.5464	-123.032	41.9877	-80.5782	-114.139	41.6764	-110.806	-113.557	25.9337	-130.57	-146.931	41.2377	-80.5596	-146.69	40.0176	-115.752	-142.203	16.8829	-141.168	-163.768	31.7176	-77.6197	-167.241	26.8644	-108.239	-162.26	8.33846	-127.651	-178.957	13.3358	-63.2662	-183.315	10.7717	-91.8952	-179.334	-7.6759	-111.529	-167.517	27.7437	-28.0393	-170.616	22.4765	2.04756	-135.329	33.8744	-13.4007	
4	0.0333333	-105.809	11.3029	-5.48896	-85.6159	6.52961	-32.9122	-72.57	0.0228931	-58.0808	-76.8829	-9.01293	-83.4733	-119.963	46.8491	-74.4395	-115.244	43.7455	-105.728	-106.376	15.7538	-119.762	-142.985	48.2991	-83.9803	-138.85	36.7653	-115.37	-131.97	5.32133	-124.704	-165.231	33.3094	-76.7829	-159.258	24.1683	-108.534	-150.52	-6.82647	-112.276	-181.527	16.345	-66.8701	-175.556	11.046	-91.5638	-164.376	-15.8596	-100.754	-168.172	31.7403	-25.7628	-165.591	26.1294	2.14342	-135.883	35.1452	-11.167	
5	0.0416667	-106.931	13.7938	-8.57306	-90.4641	8.33817	-33.7178	-84.194	3.65197	-64.9684	-93.9073	-6.16937	-87.4963	-119.177	47.328	-73.2426	-115.718	30.6032	-104.424	-105.376	3.20556	-95.8195	-143.801	43.2869	-85.0219	-133.651	25.8595	-109.941	-129.282	-8.18069	-93.4138	-162.706	30.8209	-79.1086	-154.132	9.80449	-102.234	-144.774	-14.3736	-85.8743	-176.118	17.3546	-68.8902	-167.384	4.09545	-89.6271	-155.263	-21.6016	-76.4254	-165.749	33.4659	-21.448	-168.939	24.9558	4.55046	-133.846	37.4316	-7.44439	
6	0.05	-106.451	15.6018	-9.18659	-91.6104	9.76788	-38.237	-92.16	2.87592	-64.9103	-108.47	-3.98982	-85.6026	-122.605	42.7058	-80.3258	-110.153	22.8677	-97.8675	-109.113	-0.265916	-73.6765	-142.194	34.2385	-87.4285	-128.87	11.0977	-101.126	-127.393	-11.1901	-65.5224	-156.265	24.813	-78.3524	-147.814	-2.82757	-91.3337	-138.775	-14.0259	-58.1884	-174.998	9.92521	-72.9662	-158.262	-13.0003	-79.447	-152.409	-20.9629	-52.5905	-166.399	33.0911	-22.541	-172.168	23.6883	5.62058	-139.615	38.7765	-5.72287	
7	0.0583333	-109.655	14.8314	-11.3523	-95.6019	7.99219	-43.2975	-97.4717	3.05738	-77.667	-119.051	-6.21724	-93.411	-125.293	40.6695	-84.7277	-112.949	11.8752	-94.0226	-116.739	1.09874	-65.877	-143.254	28.3009	-89.7502	-131.996	0.94978	-94.8657	-130.245	-5.72015	-52.3803	-157.876	18.5928	-82.0078	-150.783	-11.9538	-81.9856	-146.288	-11.9767	-49.7508	-174.37	4.23831	-77.9025	-159.033	-16.2148	-73.3768	-156.755	-13.3435	-40.2878	-175.802	33.3201	-27.6271	-175.035	24.5406	-0.111883	-140.481	41.5376	-10.5612	
8	0.0666667	-117.309	14.7269	-25.943	-106.634	5.88808	-57.4662	-112.203	-1.52595	-85.4314	-137.451	-9.19578	-98.9638	-134.756	36.6142	-93.0601	-124.961	3.83445	-98.7565	-124.64	4.75717	-64.7496	-153.317	25.5273	-95.0781	-143.724	-8.14719	-94.7212	-141.491	-6.21716	-56.6522	-168.06	11.5237	-88.8268	-158.683	-16.4261	-81.4565	-151.678	-7.87489	-48.1325	-185.218	2.3659	-79.5899	-167.396	-18.6187	-72.6283	-165.805	-12.1881	-40.5097	-180.819	35.3733	-37.8787	-181.414	24.5787	-5.53838	-148.184	39.5124	-20.8332	
9	0.075	-127.153	12.0746	-34.4537	-112.942	-2.82182	-67.56	-119.051	-14.7106	-94.0067	-146.988	-22.5712	-100.477	-144.112	22.2995	-104.441	-138.798	-8.38617	-105.813	-137.495	-4.74449	-70.5932	-162.152	11.8378	-104.607	-150.496	-18.3156	-98.6163	-149.39	-10.8755	-60.4643	-175.043	1.24876	-94.6821	-169.377	-25.9007	-82.1473	-161.46	-12.9264	-50.3764	-191.843	-2.99458	-82.3167	-176.165	-25.6843	-68.845	-172.613	-13.1024	-42.9746	-191.711	32.7521	-47.0807	-188.382	28.7142	-17.9375	-154.436	39.1739	-32.2321	
10	0.0833333	-129.732	8.00148	-41.8292	-119.244	-14.1432	-67.1715	-127.26	-33.6023	-91.2149	-155.265	-44.353	-96.794	-151.575	-2.68387	-107.455	-140.027	-29.304	-98.305	-143.216	-12.5636	-67.3459	-167.902	-12.9368	-105.838	-155.007	-37.0121	-92.52	-156.206	-20.5747	-57.2222	-185.47	-20.0287	-90.4469	-171.292	-41.2238	-74.3519	-162.678	-20.1245	-46.0089	-195.659	-21.0568	-80.0021	-177.978	-38.339	-62.5118	-174.805	-19.8609	-40.0462	-196.732	22.6815	-54.8104	-192.252	24.8488	-26.9195	-162.086	34.0132	-43.8987	
11	0.0916667	-130.451	4.62872	-37.7942	-110.549	-21.6595	-59.0891	-116.65	-47.2831	-77.756	-143.457	-59.4666	-78.7544	-142.492	-24.6197	-101.552	-129.898	-44.6756	-81.4519	-135.78	-22.7963	-60.4416	-160.456	-32.9186	-97.4372	-145.663	-54.1425	-75.5982	-148.99	-23.6721	-47.9428	-176.639	-38.3284	-82.612	-158.229	-54.0023	-62.854	-156.956	-30.8217	-37.8582	-182.763	-43.0918	-72.0462	-168.487	-49.6069	-52.8786	-168.967	-25.1949	-30.5522	-195.337	8.6032	-61.1357	-194.608	18.4401	-30.3479	-159.104	24.4147	-52.1294	
12	0.1	-122.998	7.82671	-39.6297	-101.311	-16.4742	-48.6378	-95.308	-46.6866	-60.5383	-118.503	-66.6972	-62.1279	-120.142	-35.3266	-90.8092	-105.819	-45.7694	-65.9803	-119.28	-21.8741	-50.9449	-135.133	-46.3671	-86.3765	-121.032	-56.7231	-58.2165	-132.718	-27.4546	-38.8285	-154.093	-53.7509	-71.2912	-133.156	-56.4714	-45.9107	-140.136	-29.49	-28.8315	-165.906	-55.7425	-59.5447	-148.191	-55.1465	-38.782	-151.949	-25.3325	-23.5463	-179.541	-6.64816	-63.6973	-186.438	11.0888	-33.24	-155.369	18.4164	-52.888	
13	0.108333	-113.311	20.6211	-34.402	-81.757	-0.971592	-41.9326	-72.1464	-31.3153	-48.5907	-90.4078	-55.8344	-45.9422	-98.9176	-29.5795	-80.8007	-81.8219	-35.4924	-53.6685	-105.921	-9.50109	-44.3745	-105.944	-46.2075	-74.9107	-91.6965	-45.0005	-45.6622	-112.12	-17.2175	-31.9474	-120.697	-52.6793	-60.8741	-107.742	-50.4183	-35.4595	-119.53	-22.2051	-21.217	-130.937	-55.6803	-50.1504	-121.705	-44.7121	-25.2117	-132.595	-19.6547	-18.4586	-162.208	-15.7527	-62.8318	-176.64	3.8965	-40.0847	-148.395	19.4929	-55.5598	
14	0.116667	-110.702	35.4372	-39.4708	-75.9405	25.5576	-39.7873	-54.579	-0.296961	-41.1365	-63.8442	-28.6052	-36.8736	-74.7945	-14.4278	-74.1803	-63.3121	-10.0285	-46.0504	-92.9492	6.53899	-42.5553	-81.188	-28.5414	-69.0117	-66.7317	-20.7889	-39.9648	-102.441	-0.258243	-30.6671	-91.9769	-39.3149	-53.3535	-82.0846	-28.357	-26.057	-102.037	-5.77342	-18.5143	-101.491	-47.7667	-38.656	-95.6218	-32.2642	-19.2485	-118.725	-7.03725	-13.7394	-146.987	-22.1655	-59.1149	-162.263	-4.04072	-40.8356	-141.043	15.4754	-60.2596	
